<?xml version="1.0" encoding="UTF-8" standalone="no"?><!DOCTYPE svg PUBLIC "-//W3C//DTD SVG 1.1//EN" "http://www.w3.org/Graphics/SVG/1.1/DTD/svg11.dtd"><svg width="100%" height="100%" viewBox="0 0 50 50" version="1.1" xmlns="http://www.w3.org/2000/svg" xmlns:xlink="http://www.w3.org/1999/xlink" xml:space="preserve" xmlns:serif="http://www.serif.com/" style="fill-rule:evenodd;clip-rule:evenodd;stroke-linejoin:round;stroke-miterlimit:2;"><clipPath id="_clip1"><rect id="gear-svgrepo-com.svg" x="0.348" y="0.348" width="49.303" height="49.303"/></clipPath><g clip-path="url(#_clip1)"><g><path d="M48.111,28.658c0.87,-0.068 1.541,-0.795 1.541,-1.666l-0,-3.984c-0,-0.873 -0.671,-1.598 -1.541,-1.667l-5.28,-0.413c-0.335,-0.025 -0.624,-0.236 -0.754,-0.547l-1.736,-4.191c-0.129,-0.31 -0.075,-0.665 0.145,-0.919l3.442,-4.026c0.566,-0.664 0.53,-1.651 -0.089,-2.268l-2.816,-2.817c-0.617,-0.616 -1.606,-0.656 -2.268,-0.088l-4.026,3.442c-0.254,0.218 -0.611,0.274 -0.919,0.146l-4.192,-1.738c-0.31,-0.128 -0.522,-0.421 -0.55,-0.753l-0.41,-5.279c-0.068,-0.871 -0.793,-1.542 -1.666,-1.542l-3.984,0c-0.873,0 -1.598,0.671 -1.666,1.543l-0.412,5.278c-0.026,0.334 -0.238,0.626 -0.548,0.754l-4.192,1.737c-0.309,0.128 -0.665,0.073 -0.92,-0.145l-4.025,-3.443c-0.662,-0.567 -1.649,-0.528 -2.268,0.089l-2.816,2.816c-0.617,0.617 -0.655,1.604 -0.089,2.268l3.442,4.026c0.217,0.255 0.274,0.61 0.145,0.92l-1.736,4.19c-0.127,0.311 -0.42,0.522 -0.753,0.548l-5.281,0.412c-0.87,0.069 -1.541,0.794 -1.541,1.667l0,3.983c0,0.872 0.671,1.599 1.541,1.667l5.281,0.411c0.333,0.027 0.626,0.239 0.753,0.549l1.736,4.19c0.129,0.31 0.072,0.667 -0.144,0.921l-3.443,4.026c-0.566,0.662 -0.528,1.65 0.089,2.268l2.816,2.817c0.619,0.616 1.606,0.654 2.268,0.087l4.025,-3.443c0.255,-0.216 0.611,-0.274 0.921,-0.144l4.191,1.736c0.31,0.13 0.523,0.42 0.548,0.755l0.412,5.279c0.068,0.869 0.793,1.542 1.666,1.542l3.984,-0c0.873,-0 1.598,-0.673 1.666,-1.542l0.411,-5.279c0.027,-0.335 0.239,-0.625 0.549,-0.755l4.192,-1.736c0.308,-0.13 0.666,-0.072 0.919,0.144l4.026,3.443c0.662,0.567 1.651,0.529 2.268,-0.087l2.817,-2.817c0.618,-0.618 0.654,-1.606 0.088,-2.268l-3.442,-4.026c-0.217,-0.254 -0.274,-0.611 -0.145,-0.921l1.737,-4.19c0.129,-0.31 0.418,-0.522 0.753,-0.549l5.28,-0.411Zm-23.111,4.673c-2.225,0 -4.318,-0.867 -5.892,-2.439c-1.574,-1.575 -2.441,-3.667 -2.441,-5.893c0,-2.226 0.867,-4.319 2.441,-5.891c1.574,-1.575 3.667,-2.441 5.892,-2.441c2.227,0 4.318,0.866 5.892,2.441c1.574,1.572 2.441,3.665 2.441,5.891c-0,2.226 -0.867,4.318 -2.441,5.893c-1.574,1.572 -3.665,2.439 -5.892,2.439Z" style="fill:#e94f37;fill-rule:nonzero;"/></g></g><g id="gear-svgrepo-com.svg1" serif:id="gear-svgrepo-com.svg"></g></svg>