<?xml version="1.0" encoding="UTF-8" standalone="no"?><!DOCTYPE svg PUBLIC "-//W3C//DTD SVG 1.1//EN" "http://www.w3.org/Graphics/SVG/1.1/DTD/svg11.dtd"><svg width="100%" height="100%" viewBox="0 0 50 50" version="1.1" xmlns="http://www.w3.org/2000/svg" xmlns:xlink="http://www.w3.org/1999/xlink" xml:space="preserve" xmlns:serif="http://www.serif.com/" style="fill-rule:evenodd;clip-rule:evenodd;stroke-linejoin:round;stroke-miterlimit:2;"><path d="M34.57,23.681l3.272,0c0.439,0 0.781,0.391 0.781,0.83l0,17.187c0,0.439 -0.342,0.782 -0.781,0.782l-25.342,-0c-0.439,-0 -0.781,-0.343 -0.781,-0.782l-0,-17.187c-0,-0.439 0.342,-0.83 0.781,-0.83l17.969,0l-0,-7.617c-0,-2.491 -2.052,-4.591 -4.591,-4.591l-1.514,0c-2.491,0 -4.541,2.1 -4.541,4.591l0,2.881l-4.15,0l0,-3.272c0,-4.492 2.882,-8.203 7.325,-8.203l4.2,0c4.493,0 7.374,3.711 7.374,8.203l-0,8.008l-0.002,0Zm-11.718,13.819l4.59,-0l-1.123,-4.931c0.781,-0.391 1.319,-1.221 1.319,-2.149c-0,-1.415 -1.124,-2.49 -2.491,-2.49c-1.367,-0 -2.442,1.075 -2.442,2.49c-0,0.928 0.537,1.758 1.318,2.149l-1.171,4.931Z" style="fill:#e94f37;fill-rule:nonzero;"/><g id="unlock-svgrepo-com.svg"></g></svg>